<?xml version="1.0" encoding="UTF-8" standalone="no"?>
<svg
   version="1.1"
   width="286.00473"
   height="165.65639"
   id="svg35"
   xmlns="http://www.w3.org/2000/svg"
   xmlns:svg="http://www.w3.org/2000/svg">
  <defs
     id="defs35" />
  <g
     id="g35"
     style="display:inline"
     transform="translate(-258.54099,-216.41621)">
    <path
       d="m 347,217 c 2.03125,-0.37231 2.03125,-0.37231 4.5,-0.36328 1.33031,9.7e-4 1.33031,9.7e-4 2.6875,0.002 1.39219,0.0242 1.39219,0.0242 2.8125,0.0488 0.92813,-0.003 1.85625,-0.006 2.8125,-0.01 6.92056,0.0553 6.92056,0.0553 9.1875,2.32227 0.99,3.96 0.99,3.96 2,8 22.77,0 45.54,0 69,0 1.32,-2.97 2.64,-5.94 4,-9 2.2589,-2.2589 7.34383,-1.3264 10.375,-1.375 0.87656,-0.0374 1.75312,-0.0748 2.65625,-0.11328 0.84305,-0.0116 1.68609,-0.0232 2.55469,-0.0352 1.16088,-0.0297 1.16088,-0.0297 2.34521,-0.0601 C 464,217 464,217 465.66577,219.21094 c 1.25925,2.63232 2.24038,5.15028 3.09595,7.9375 0.46587,1.49164 0.46587,1.49164 0.94116,3.01343 0.32493,1.06033 0.64985,2.12066 0.98462,3.21313 2.09101,6.71691 4.20206,13.41275 6.57812,20.03516 0.54588,1.52198 0.54588,1.52198 1.10279,3.0747 0.69228,1.91195 1.39339,3.82074 2.10498,5.72559 2.1452,5.94416 3.20161,11.47709 3.52661,17.78955 0.66,0 1.32,0 2,0 0.26812,-0.63937 0.53625,-1.27875 0.8125,-1.9375 C 488,276 488,276 491,275 c 3.99017,-0.25743 6.95183,-0.33351 10.75,0.875 5.83171,5.50772 7.02397,14.68888 9.04517,22.19385 3.37108,12.41609 7.34567,24.66022 11.20483,36.93115 0.49162,1.56379 0.49162,1.56379 0.99316,3.15918 1.66212,5.28245 3.33075,10.56279 5.00684,15.84082 0.73605,0.0258 1.47211,0.0516 2.23047,0.0781 0.97582,0.0567 1.95164,0.11344 2.95703,0.17188 0.96293,0.0464 1.92586,0.0928 2.91797,0.14062 3.70679,0.78038 5.36575,1.77988 7.89453,4.60938 0.59375,3.56641 0.59375,3.56641 0.5,7.5625 0.003,0.67225 0.005,1.34449 0.008,2.03711 -0.0572,2.8791 -0.16566,4.91601 -1.85156,7.30273 -16.19843,10.73529 -56.44633,4.46345 -74.84375,3.22266 -1.17635,-0.0783 -2.3527,-0.15662 -3.5647,-0.2373 C 449.78865,377.78865 449.78865,377.78865 446,374 c -0.27966,-2.51399 -0.41605,-4.85856 -0.4375,-7.375 -0.0493,-1.00934 -0.0493,-1.00934 -0.0996,-2.03906 -0.0392,-3.61743 0.27796,-5.28692 2.66992,-8.04688 3.3609,-1.80408 5.39306,-1.95551 9.17969,-1.78906 1.06863,0.0361 2.13727,0.0722 3.23828,0.10937 0.80824,0.0464 1.61649,0.0928 2.44922,0.14063 0.13277,-0.60328 0.26555,-1.20656 0.40234,-1.82813 0.17661,-0.79921 0.35321,-1.59843 0.53516,-2.42187 0.17402,-0.78891 0.34805,-1.57781 0.52734,-2.39063 0.48272,-2.12816 0.99679,-4.2447 1.53516,-6.35937 -0.83314,0.24339 -0.83314,0.24339 -1.68311,0.4917 -2.53052,0.55517 -4.79725,0.63779 -7.3872,0.64111 -1.46953,0.002 -1.46953,0.002 -2.96875,0.004 -1.52754,-0.006 -1.52754,-0.006 -3.08594,-0.0117 -1.49273,0.006 -1.49273,0.006 -3.01563,0.0117 C 441.51375,343.12843 435.29958,342.7629 429,342 c -0.17016,0.72703 -0.34031,1.45406 -0.51563,2.20312 C 423.92771,363.10843 423.92771,363.10843 420,369 c -2.74976,0.38818 -2.74976,0.38818 -6.21484,0.39844 -1.2433,0.004 -2.48661,0.008 -3.76758,0.0117 -1.95777,-0.0174 -1.95777,-0.0174 -3.95508,-0.0352 -1.30131,0.0116 -2.60262,0.0232 -3.94336,0.0352 -1.24459,-0.004 -2.48918,-0.008 -3.77148,-0.0117 -1.14461,-0.003 -2.28922,-0.007 -3.46851,-0.0103 C 392,369 392,369 390.18994,367.72144 c -1.30191,-1.88342 -1.95299,-3.462 -2.57666,-5.66285 -0.32388,-1.12245 -0.32388,-1.12245 -0.6543,-2.26757 -0.21334,-0.77666 -0.42668,-1.55332 -0.64648,-2.35352 -0.22494,-0.78053 -0.44988,-1.56105 -0.68164,-2.36523 C 384,349.32708 384,349.32708 384,347 c -1.11117,0.0838 -2.22234,0.16758 -3.36719,0.25391 C 372.60212,347.81805 365.00776,348.14397 357,347 c 0.10312,1.25812 0.20625,2.51625 0.3125,3.8125 0.17578,2.14453 0.17578,2.14453 -0.3125,4.1875 -3.61569,2.6452 -6.4213,3.4139 -10.85156,3.70312 -1.09828,0.0941 -2.19657,0.18821 -3.32813,0.28516 -2.30352,0.17499 -4.60832,0.33375 -6.91406,0.47656 -5.73934,0.21175 -5.73934,0.21175 -10.27417,3.15235 -0.92151,2.11989 -0.92151,2.11989 -1.63208,5.38281 -3.79688,2.76137 -8.14196,2.1649 -12.61719,1.61719 C 307.84444,368.70069 306.1206,366.89816 304,364 c 0,-0.66 0,-1.32 0,-2 -4.01619,-0.9177 -7.91253,-1.24449 -12.02344,-1.46484 -1.3646,-0.0785 -2.72918,-0.15732 -4.09375,-0.23633 -2.1281,-0.11935 -4.25627,-0.23625 -6.38476,-0.34839 -2.07013,-0.11056 -4.13949,-0.23106 -6.20899,-0.35278 -1.23025,-0.067 -2.4605,-0.13391 -3.72802,-0.20288 C 262.37659,358.37659 262.37659,358.37659 259,355 c -0.22555,-2.52793 -0.32439,-4.91056 -0.3125,-7.4375 -0.0161,-0.68127 -0.0322,-1.36254 -0.0488,-2.06445 -0.003,-2.77366 0.0705,-4.97369 1.43164,-7.42774 2.9738,-1.64943 5.74802,-1.60326 9.11719,-1.75781 1.2723,-0.0657 2.54461,-0.13148 3.85547,-0.19922 1.46373,-0.0561 1.46373,-0.0561 2.95703,-0.11328 0.16242,-1.2143 0.16242,-1.2143 0.32812,-2.45313 0.80288,-4.2384 2.0769,-8.20454 3.42188,-12.29687 2.01216,-6.23864 3.91506,-12.48441 5.625,-18.8125 2.1015,-7.73359 4.39888,-15.40129 6.75,-23.0625 0.33693,-1.10287 0.67386,-2.20575 1.021,-3.34204 5.03198,-16.30227 5.03198,-16.30227 8.104,-19.03296 5.02533,-1.82739 10.14182,-1.67862 15.06934,0.51953 3.96866,3.49593 4.49822,9.72399 5.61816,14.66797 0.45343,1.83981 0.45343,1.83981 0.91602,3.7168 0.74192,3.02656 1.45604,6.05705 2.14648,9.0957 0.18248,-0.76329 0.36497,-1.52657 0.55298,-2.31299 1.5352,-6.29889 3.24948,-12.44259 5.38452,-18.56201 1.80341,-5.28209 3.51509,-10.5547 5,-15.9375 1.72414,-6.18363 3.67367,-12.27975 5.6875,-18.375 0.30156,-0.92208 0.60312,-1.84417 0.91382,-2.79419 0.28883,-0.86585 0.57766,-1.73169 0.87524,-2.62378 0.25733,-0.77497 0.51466,-1.54994 0.77979,-2.34839 C 345,220 345,220 347,217 Z m 110,54 c -2.03939,5.24415 -3.79466,10.49113 -5.35156,15.89844 C 451,289 451,289 450,291 c -0.78375,0.22687 -1.5675,0.45375 -2.375,0.6875 -5.04166,2.52083 -6.30164,10.08598 -8.02148,15.22852 -0.26104,0.79084 -0.52207,1.58168 -0.79102,2.39648 -0.27264,0.81018 -0.54527,1.62035 -0.82617,2.45508 -0.25717,0.77408 -0.51434,1.54816 -0.7793,2.3457 -0.23227,0.69908 -0.46454,1.39815 -0.70386,2.11841 -0.5944,1.7825 -0.5944,1.7825 -0.50317,3.76831 11.88,0 23.76,0 36,0 -0.64679,-3.88072 -1.15777,-6.83331 -2.41797,-10.40625 -0.28222,-0.81638 -0.56445,-1.63276 -0.85522,-2.47388 -0.45259,-1.29683 -0.45259,-1.29683 -0.91431,-2.61987 -3.77585,-11.03596 -6.87046,-22.217 -9.8125,-33.5 -0.33,0 -0.66,0 -1,0 z m -109,21 c -2.14134,3.21202 -2.91563,5.79008 -3.9375,9.5 -0.3184,1.14469 -0.6368,2.28937 -0.96484,3.46875 -0.36223,1.33031 -0.72446,2.66062 -1.09766,4.03125 -1.485,5.445 -1.485,5.445 -3,11 11.88,0 23.76,0 36,0 -0.68471,-4.10825 -1.37176,-7.51271 -2.62891,-11.39844 -0.46889,-1.45986 -0.46889,-1.45986 -0.94726,-2.94922 -0.32549,-0.99902 -0.65098,-1.99804 -0.98633,-3.02734 -0.32936,-1.02223 -0.65871,-2.04445 -0.99805,-3.09766 C 368.63004,297.01699 367.81679,294.50796 367,292 c -3.12483,-0.0869 -6.24934,-0.14035 -9.375,-0.1875 -0.88945,-0.0251 -1.77891,-0.0503 -2.69531,-0.0762 -0.85078,-0.01 -1.70157,-0.0193 -2.57813,-0.0293 -0.78552,-0.0157 -1.57104,-0.0314 -2.38037,-0.0476 C 349.3207,291.77181 348.67021,291.8842 348,292 Z m 44,0 c 0.639,3.83397 1.15397,6.83213 2.375,10.38281 0.26297,0.77473 0.52594,1.54946 0.79687,2.34766 0.27329,0.79019 0.54657,1.58039 0.82813,2.39453 0.54301,1.58548 1.08472,3.1714 1.625,4.75781 0.23977,0.69497 0.47953,1.38993 0.72656,2.10596 0.64102,1.98822 1.16567,3.97937 1.64844,6.01123 1.62464,0.0539 3.24979,0.0928 4.875,0.125 0.90492,0.0232 1.80984,0.0464 2.74219,0.0703 2.57088,0.0479 2.57088,0.0479 4.38281,-2.19531 0.68852,-2.1263 1.30236,-4.2771 1.875,-6.4375 1.54521,-5.63479 3.3179,-11.08994 5.39062,-16.55078 0.79153,-1.81135 0.79153,-1.81135 0.73438,-3.01172 -9.24,0 -18.48,0 -28,0 z"
       fill="#535d66"
       id="path1" />
    <path
       d="m 357,234 c 27.06,0 54.12,0 82,0 -0.69252,3.46262 -1.42306,6.55425 -2.49048,9.88208 -0.30023,0.9406 -0.60047,1.8812 -0.9098,2.8503 -0.32295,1.00226 -0.64589,2.00452 -0.97863,3.03715 -0.49728,1.55421 -0.49728,1.55421 -1.00462,3.13982 -1.05712,3.30187 -2.11799,6.60252 -3.17897,9.90315 -0.71835,2.24146 -1.43645,4.48299 -2.1543,6.72461 C 426.52498,275.02565 424.76367,280.5132 423,286 c -9.85728,0.0926 -19.71445,0.16372 -29.57207,0.20725 -4.57713,0.0209 -9.15395,0.0492 -13.73091,0.0945 -4.41555,0.0434 -8.83081,0.0674 -13.24656,0.0777 -1.68617,0.007 -3.37233,0.0219 -5.05838,0.0434 -2.35866,0.029 -4.71613,0.033 -7.07494,0.0312 -0.69987,0.0144 -1.39974,0.0288 -2.12082,0.0436 -3.21762,-0.0275 -4.78865,-0.10473 -7.15279,-2.38353 -3.62389,-7.34184 3.13938,-20.59499 5.45647,-27.80165 0.80545,-2.52369 1.60624,-5.04879 2.40625,-7.57422 0.35385,-1.10303 0.7077,-2.20607 1.07227,-3.34253 C 355.11055,241.63249 356.04687,237.8125 357,234 Z"
       fill="#ebeced"
       id="path2" />
    <path
       d="m 490.59766,297.90234 c 1.48831,0.007 2.9766,0.0186 4.46484,0.0352 0.75861,0.005 1.51723,0.009 2.29883,0.0137 1.87959,0.0118 3.75914,0.0298 5.63867,0.0488 2.34217,5.20123 4.15287,10.40686 5.77734,15.87109 0.37894,1.25999 0.37894,1.25999 0.76552,2.54543 0.53224,1.77356 1.06244,3.54774 1.59068,5.32249 0.7928,2.66104 1.59376,5.31951 2.39576,7.97779 3.11129,10.3699 5.92982,20.75845 8.4707,31.2832 4.95,0.33 9.9,0.66 15,1 0,2.97 0,5.94 0,9 -4.5483,0.43686 -9.09741,0.86353 -13.64746,1.28174 -1.53996,0.14287 -3.07969,0.28828 -4.61914,0.43652 -16.76977,1.61121 -32.97679,1.39531 -49.7334,-0.21826 -1.56504,-0.1452 -3.13015,-0.28973 -4.69531,-0.43359 C 460.5357,371.71857 456.76766,371.36188 453,371 c 0,-2.97 0,-5.94 0,-9 4.95,-0.33 9.9,-0.66 15,-1 0.51176,-2.14629 1.02352,-4.29258 1.55078,-6.50391 2.51214,-10.21145 5.59698,-20.25003 8.67749,-30.30151 0.97303,-3.17714 1.93818,-6.35661 2.90259,-9.53638 0.61608,-2.02032 1.2326,-4.04051 1.84961,-6.06054 0.28852,-0.95084 0.57705,-1.90168 0.87431,-2.88134 0.40096,-1.30385 0.40096,-1.30385 0.81001,-2.63404 0.23443,-0.76671 0.46885,-1.53341 0.71038,-2.32335 1.14745,-3.23013 1.45328,-2.75427 5.22249,-2.85659 z"
       fill="#f69a5e"
       id="path3" />
    <path
       d="m 494.875,274.5625 c 3.85427,0.24707 6.23432,0.70741 9.125,3.4375 3.48494,6.15225 4.96935,13.28934 6.79517,20.06885 3.37108,12.41609 7.34567,24.66022 11.20483,36.93115 0.32774,1.04253 0.65549,2.08506 0.99316,3.15918 1.66212,5.28245 3.33075,10.56279 5.00684,15.84082 0.73605,0.0258 1.47211,0.0516 2.23047,0.0781 1.46373,0.0851 1.46373,0.0851 2.95703,0.17188 0.96293,0.0464 1.92586,0.0928 2.91797,0.14062 3.70679,0.78038 5.36575,1.77988 7.89453,4.60938 0.59375,3.56641 0.59375,3.56641 0.5,7.5625 0.004,1.00837 0.004,1.00837 0.008,2.03711 -0.0572,2.8791 -0.16566,4.91601 -1.85156,7.30273 -16.19843,10.73529 -56.44633,4.46345 -74.84375,3.22266 -1.17635,-0.0783 -2.3527,-0.15662 -3.5647,-0.2373 C 449.78865,377.78865 449.78865,377.78865 446,374 c -0.27966,-2.51399 -0.41605,-4.85856 -0.4375,-7.375 -0.0329,-0.67289 -0.0657,-1.34578 -0.0996,-2.03906 -0.0392,-3.61743 0.27796,-5.28692 2.66992,-8.04688 3.3609,-1.80408 5.39306,-1.95551 9.17969,-1.78906 1.06863,0.0361 2.13727,0.0722 3.23828,0.10937 0.80824,0.0464 1.61649,0.0928 2.44922,0.14063 0.10957,-0.55688 0.21914,-1.11375 0.33203,-1.6875 0.15856,-0.76313 0.31711,-1.52625 0.48047,-2.3125 0.15082,-0.7425 0.30164,-1.485 0.45703,-2.25 C 465,346 465,346 466.31738,342.58838 c 2.07878,-5.49351 3.68481,-11.11849 5.33496,-16.75244 0.70074,-2.36211 1.40193,-4.72409 2.10352,-7.08594 1.09505,-3.69626 2.18701,-7.39333 3.27124,-11.09277 1.05343,-3.58905 2.11957,-7.17411 3.18774,-10.75879 0.31993,-1.10325 0.63985,-2.20649 0.96947,-3.34317 1.6578,-5.52778 3.30155,-9.96635 6.81569,-14.55527 0.61875,-1.17563 0.61875,-1.17563 1.25,-2.375 C 491,275 491,275 494.875,274.5625 Z M 487,298 c -3.05797,7.22943 -5.48187,14.52884 -7.67188,22.0625 -0.32728,1.11311 -0.65456,2.22621 -0.99176,3.37305 -0.68459,2.33216 -1.36683,4.66502 -2.04681,6.99853 -1.04509,3.58492 -2.09839,7.16734 -3.15283,10.74951 -0.66585,2.272 -1.33123,4.54413 -1.9961,6.81641 -0.31555,1.07387 -0.63111,2.14774 -0.95623,3.25415 -0.2874,0.98863 -0.5748,1.97726 -0.87091,2.99585 -0.25441,0.87141 -0.50882,1.74281 -0.77094,2.64062 -0.62557,2.0692 -0.62557,2.0692 -0.54254,4.10938 -4.95,0.33 -9.9,0.66 -15,1 0,2.97 0,5.94 0,9 4.5483,0.43686 9.09741,0.86353 13.64746,1.28174 1.53996,0.14287 3.07969,0.28828 4.61914,0.43652 16.76977,1.61121 32.97679,1.39531 49.7334,-0.21826 1.56504,-0.1452 3.13015,-0.28973 4.69531,-0.43359 C 529.4643,371.71857 533.23234,371.36188 537,371 c 0,-2.97 0,-5.94 0,-9 -4.95,-0.33 -9.9,-0.66 -15,-1 -0.51176,-2.14629 -1.02352,-4.29258 -1.55078,-6.50391 -2.51214,-10.21145 -5.59698,-20.25003 -8.67749,-30.30151 -0.97303,-3.17714 -1.93818,-6.35661 -2.90259,-9.53638 -0.61608,-2.02032 -1.2326,-4.04051 -1.84961,-6.06054 -0.43278,-1.42626 -0.43278,-1.42626 -0.87431,-2.88134 -0.26731,-0.86923 -0.53461,-1.73847 -0.81001,-2.63404 -0.35164,-1.15006 -0.35164,-1.15006 -0.71038,-2.32335 C 504.14108,298.99788 504.14108,298.99788 503,298 c -2.69655,-0.0732 -5.36691,-0.0924 -8.0625,-0.0625 -1.13792,0.007 -1.13792,0.007 -2.29883,0.0137 C 490.75908,297.963 488.87953,297.981 487,298 Z"
       fill="#655646"
       id="path4" />
    <path
       d="m 316.35059,257.71973 c 3.50209,2.71832 4.07945,7.21876 5.08691,11.34277 0.25459,0.90428 0.50918,1.80855 0.77148,2.74023 1.99685,7.5299 3.62489,16.00877 -0.20898,23.19727 -2.29689,-2.29689 -2.71851,-3.78928 -3.625,-6.875 -0.26039,-0.86367 -0.52078,-1.72734 -0.78906,-2.61719 C 317,283 317,283 317,279 c -8.415,0.495 -8.415,0.495 -17,1 -0.44916,1.50417 -0.89832,3.00835 -1.36108,4.55811 -1.66238,5.56533 -3.32716,11.12994 -4.99268,16.69433 -0.72136,2.41126 -1.44207,4.82272 -2.16211,7.23438 -1.03336,3.46064 -2.06905,6.92057 -3.10522,10.38037 -0.48442,1.62505 -0.48442,1.62505 -0.97863,3.28293 -0.30023,1.00088 -0.60047,2.00177 -0.9098,3.03299 -0.26425,0.8838 -0.52851,1.7676 -0.80077,2.67819 C 285,330 285,330 284,332 c 8.25,0.33 16.5,0.66 25,1 -1.46001,6.57004 -3.09635,12.64152 -5.19531,18.98438 -0.76291,2.85904 -0.86846,5.08469 -0.80469,8.01562 -21.99964,0.37915 -21.99964,0.37915 -32.6875,-0.8125 -0.68699,-0.0701 -1.37398,-0.14019 -2.08179,-0.2124 C 264.4092,358.4907 261.51208,358.03075 259,355 c -0.38122,-2.66552 -0.51578,-4.84843 -0.4375,-7.5 -0.007,-0.67676 -0.0142,-1.35352 -0.0215,-2.05078 0.0353,-2.75383 0.17807,-4.94746 1.5371,-7.375 2.96779,-1.65883 5.74171,-1.60724 9.10938,-1.76172 1.2723,-0.0657 2.54461,-0.13148 3.85547,-0.19922 1.46373,-0.0561 1.46373,-0.0561 2.95703,-0.11328 0.16242,-1.2143 0.16242,-1.2143 0.32812,-2.45312 0.80288,-4.23841 2.0769,-8.20455 3.42188,-12.29688 2.01216,-6.23864 3.91506,-12.48441 5.625,-18.8125 2.1015,-7.73359 4.39888,-15.40129 6.75,-23.0625 0.33693,-1.10287 0.67386,-2.20575 1.021,-3.34204 5.03198,-16.30227 5.03198,-16.30227 8.104,-19.03296 5.19366,-1.8886 10.04361,-1.5496 15.10059,0.71973 z"
       fill="#695a4a"
       id="path5" />
    <path
       d="m 448,223 c 3.63,0 7.26,0 11,0 -1.27675,6.88999 -2.92848,13.46834 -5.05469,20.14062 -0.2978,0.94895 -0.59559,1.8979 -0.90242,2.8756 -0.96772,3.0795 -1.94273,6.15663 -2.91789,9.23378 -0.67469,2.14219 -1.34892,4.28453 -2.02271,6.427 -1.70266,5.40973 -3.41135,10.81754 -5.12225,16.22467 -1.50231,4.74945 -3.00084,9.50009 -4.49957,14.25067 -1.53872,4.87666 -3.07808,9.7531 -4.62256,14.62793 -2.6589,8.39471 -5.27977,16.79978 -7.85791,25.21973 -3.1965,10.38163 -6.52504,20.7082 -10,31 -6.67969,0.24219 -6.67969,0.24219 -9.5625,-1.9375 -3.44278,-7.33463 2.64337,-18.76459 5.07812,-26.08594 0.4529,-1.37274 0.90539,-2.74561 1.3575,-4.1186 0.95823,-2.90744 1.91906,-5.814 2.88204,-8.71987 1.50458,-4.54042 3.00314,-9.08282 4.50046,-13.62564 1.50127,-4.55417 3.0027,-9.10828 4.50608,-13.66176 3.8372,-11.62294 7.6517,-23.25314 11.43959,-34.89225 0.8313,-2.55403 1.66407,-5.10757 2.49695,-7.66108 C 441.8717,242.55386 444.96709,232.78815 448,223 Z"
       fill="#e7ebed"
       id="path6" />
    <path
       d="m 472.94252,350.87975 c 0.85049,0.002 1.70099,0.004 2.57726,0.007 1.44138,1.2e-4 1.44138,1.2e-4 2.91188,2.3e-4 1.56717,0.008 1.56717,0.008 3.166,0.0156 1.06399,10e-4 2.12799,0.003 3.22422,0.004 3.41357,0.006 6.82707,0.0182 10.24062,0.0309 2.30794,0.005 4.61588,0.01 6.92383,0.0137 5.67124,0.0111 11.34245,0.0278 17.01367,0.0488 0.50404,1.2901 1.0031,2.58214 1.5,3.875 0.27844,0.7193 0.55688,1.43859 0.84375,2.17969 C 522,359 522,359 522,361 c 4.95,0.33 9.9,0.66 15,1 0,2.97 0,5.94 0,9 -4.5483,0.43686 -9.09741,0.86353 -13.64746,1.28174 -1.53996,0.14287 -3.07969,0.28828 -4.61914,0.43652 -16.76977,1.61121 -32.97679,1.39531 -49.7334,-0.21826 -1.56504,-0.1452 -3.13015,-0.28973 -4.69531,-0.43359 C 460.5357,371.71857 456.76766,371.36188 453,371 c 0,-2.97 0,-5.94 0,-9 4.95,-0.33 9.9,-0.66 15,-1 0.30938,-1.46437 0.61875,-2.92875 0.9375,-4.4375 1.16342,-5.50684 1.16342,-5.50684 4.00502,-5.68275 z"
       fill="#d78854"
       id="path7" />
    <path
       d="m 355,242 c 3.1772,1.38558 5.11466,2.9488 7.40967,5.53174 0.64943,0.72059 1.29887,1.44119 1.96799,2.18362 0.69779,0.77714 1.39559,1.55427 2.11453,2.35495 1.52407,1.63717 3.05153,3.27119 4.58203,4.90235 2.40059,2.55981 4.77934,5.12811 7.10498,7.75634 9.49616,11.20993 9.49616,11.20993 22.67725,16.35205 4.66316,0.13643 9.19186,-0.27252 13.81158,-0.87554 3.27809,-0.28889 6.1142,0.15775 9.33197,0.79449 -0.33,1.65 -0.66,3.3 -1,5 -9.85728,0.0926 -19.71445,0.16372 -29.57207,0.20725 -4.57713,0.0209 -9.15395,0.0492 -13.73091,0.0945 -4.41555,0.0434 -8.83081,0.0674 -13.24656,0.0777 -1.68617,0.007 -3.37233,0.0219 -5.05838,0.0434 -2.35866,0.029 -4.71613,0.033 -7.07494,0.0312 -0.69987,0.0144 -1.39974,0.0288 -2.12082,0.0436 -3.21835,-0.0275 -4.7886,-0.1044 -7.15251,-2.38463 -3.72884,-7.54854 3.1324,-20.63952 5.58119,-28.30055 0.42509,-1.34681 0.84957,-2.69382 1.27344,-4.04102 C 352.92639,248.5124 353.96035,245.25537 355,242 Z"
       fill="#b9bdc2"
       id="path8" />
    <path
       d="m 303.81641,278.90234 c 1.58206,0.007 3.1641,0.0186 4.74609,0.0352 0.80631,0.005 1.61262,0.009 2.44336,0.0137 1.99808,0.0118 3.99612,0.0298 5.99414,0.0488 0.67848,2.18386 1.34226,4.3723 2,6.5625 0.37125,1.21816 0.7425,2.43633 1.125,3.69141 1.58708,6.79468 0.74872,12.15086 -1.53125,18.64843 -0.36623,1.08385 -0.36623,1.08385 -0.73987,2.18959 -0.77475,2.28537 -1.56402,4.56539 -2.35388,6.84557 -0.53092,1.55761 -1.06088,3.11555 -1.58984,4.67383 -1.2923,3.80011 -2.59764,7.5955 -3.91016,11.38867 -2.71746,0.0136 -5.43486,0.0235 -8.15234,0.0312 -0.76422,0.004 -1.52843,0.008 -2.3158,0.0127 C 294.27734,333.05525 289.2069,332.75737 284,332 c 2.61176,-10.96562 5.62443,-21.76184 8.94653,-32.53296 0.75585,-2.45283 1.50364,-4.90802 2.25074,-7.36352 0.47935,-1.5646 0.95915,-3.12906 1.43945,-4.69336 0.2229,-0.73211 0.4458,-1.46421 0.67546,-2.21849 1.91181,-6.17181 1.91181,-6.17181 6.50423,-6.28933 z"
       fill="#f6995d"
       id="path9" />
    <path
       d="m 330,326 c 26.07,0 52.14,0 79,0 -1.01485,5.07424 -2.51305,10.04351 -4,15 -25.41,0 -50.82,0 -77,0 -0.66,-1.32 -1.32,-2.64 -2,-4 1.32,-3.63 2.64,-7.26 4,-11 z"
       fill="#e0e4e7"
       id="path10" />
    <path
       d="m 354.28516,222.90234 c 0.91652,0.0116 1.83304,0.0232 2.77734,0.0352 0.9191,0.009 1.8382,0.018 2.78516,0.0273 0.71027,0.0116 1.42054,0.0232 2.15234,0.0352 -0.33,1.65 -0.66,3.3 -1,5 -2.64,0.33 -5.28,0.66 -8,1 -0.15058,0.64727 -0.30116,1.29454 -0.4563,1.96143 -1.54804,6.43047 -3.32039,12.76702 -5.24292,19.09326 -0.36208,1.19438 -0.36208,1.19438 -0.73147,2.4129 -1.00604,3.31197 -2.01508,6.62294 -3.0344,9.93085 -0.75214,2.44572 -1.49386,4.89441 -2.23413,7.34375 -0.2312,0.74071 -0.4624,1.48143 -0.70061,2.2446 -1.23073,4.10108 -2.00944,7.68105 -1.60017,12.01321 0.53625,0.59812 1.0725,1.19625 1.625,1.8125 C 342,288 342,288 341.28516,291.92578 340.87091,293.6207 340.44133,295.31193 340,297 c -0.23558,0.90694 -0.47115,1.81387 -0.71387,2.74829 -0.78073,2.88997 -1.62052,5.75734 -2.47363,8.62671 -0.26619,0.98355 -0.53238,1.96711 -0.80664,2.98047 -0.822,2.72509 -1.62088,5.1564 -3.00586,7.64453 -3.55469,1.73437 -3.55469,1.73437 -7,3 -1.91045,3.16392 -1.91045,3.16392 -2.9375,6.875 -0.4009,1.2143 -0.8018,2.42859 -1.21484,3.67969 -0.75237,3.05799 -1.28604,5.33878 -0.84766,8.44531 0.76184,0.7541 0.76184,0.7541 1.53906,1.52344 0.48211,0.48726 0.96422,0.97453 1.46094,1.47656 -0.0391,2.16406 -0.0391,2.16406 -0.625,4.625 -0.20625,0.87656 -0.4125,1.75312 -0.625,2.65625 -1.09354,3.96408 -2.34937,7.85302 -3.75,11.71875 -4.08937,0.39321 -6.22203,0.58822 -9.5625,-1.9375 -3.01399,-6.42111 1.35839,-14.85744 3.54687,-21.27344 0.29197,-0.86888 0.58394,-1.73775 0.88476,-2.63296 0.62857,-1.86957 1.25912,-3.73848 1.89146,-5.60678 1.7058,-5.04169 3.39562,-10.08874 5.08707,-15.13526 0.3473,-1.03509 0.69461,-2.07019 1.05244,-3.13666 3.48769,-10.40682 6.89731,-20.83844 10.2874,-31.2774 0.28479,-0.87596 0.56958,-1.75192 0.86301,-2.65442 2.87368,-8.83913 5.73729,-17.68146 8.58729,-26.52826 1.12356,-3.48705 2.24906,-6.97347 3.37456,-10.4599 0.78436,-2.43347 1.56518,-4.86806 2.34579,-7.30273 0.47031,-1.45839 0.94076,-2.91672 1.41138,-4.375 0.21283,-0.66751 0.42565,-1.33501 0.64493,-2.02274 1.82204,-5.62432 1.82204,-5.62432 4.8707,-5.75461 z"
       fill="#e7eaed"
       id="path11" />
    <path
       d="m 357,234 c 5.7508,-0.82904 10.83547,-1.30619 15.94766,1.77878 2.95872,2.61151 5.69281,5.36921 8.38437,8.24856 1.00994,1.0317 2.02275,2.06059 3.03826,3.08681 2.64551,2.68916 5.24925,5.41544 7.8462,8.15141 2.6633,2.79001 5.36733,5.53996 8.06671,8.29499 3.92031,4.01529 7.82573,8.04392 11.70044,12.10327 0.77798,0.81496 1.55595,1.62993 2.3575,2.46959 C 416,280 416,280 416,281 c -7.98418,1.3817 -16.40788,2.57447 -23.75134,-1.54248 -5.75331,-4.30288 -10.68241,-9.41742 -15.55042,-14.68066 -2.59274,-2.7979 -5.25921,-5.50528 -7.94824,-8.21045 -1.68971,-1.74666 -3.37479,-3.49781 -5.05469,-5.25391 -0.79236,-0.81179 -1.58472,-1.62357 -2.40109,-2.45996 -5.16843,-5.65478 -5.16843,-5.65478 -5.54184,-9.21045 C 356.01904,237.41797 356.01904,237.41797 357,234 Z"
       fill="#f79a5d"
       id="path12" />
    <path
       d="m 392,234 c 15.51,0 31.02,0 47,0 -0.84529,4.22645 -1.94938,8.18995 -3.28516,12.26953 -0.33081,1.02151 -0.33081,1.02151 -0.66832,2.06365 -0.70039,2.16063 -1.40464,4.31998 -2.10902,6.47932 -0.47747,1.47062 -0.95469,2.94132 -1.43164,4.41211 -1.16569,3.59276 -2.33484,7.18437 -3.50586,10.77539 -4.89453,-4.10825 -9.51777,-8.3697 -14.02734,-12.89453 -0.95067,-0.94924 -0.95067,-0.94924 -1.92055,-1.91765 -1.32467,-1.32399 -2.6481,-2.64923 -3.97032,-3.97566 -2.03459,-2.04 -4.07453,-4.07453 -6.11499,-6.10864 -1.29004,-1.2907 -2.57976,-2.5817 -3.86914,-3.87305 -0.61238,-0.61036 -1.22476,-1.22071 -1.8557,-1.84956 C 392,235.11498 392,235.11498 392,234 Z"
       fill="#f69b61"
       id="path13" />
    <path
       d="m 476,332 c 12.54,0 25.08,0 38,0 5,16 5,16 5,19 -7.49797,1.04623 -14.92572,1.15361 -22.48413,1.13037 -2.07763,-0.005 -4.15504,-2e-5 -6.23267,0.006 -6.50241,0.003 -12.85463,-0.0943 -19.2832,-1.13672 1.36729,-6.52092 3.0638,-12.546 5,-19 z"
       fill="#ebedee"
       id="path14" />
    <path
       d="m 355,242 c 3.22022,1.41765 5.37173,3.12336 7.85059,5.60767 0.74046,0.73739 1.48093,1.47477 2.24383,2.23451 1.18303,1.1938 1.18303,1.1938 2.38995,2.41173 0.8156,0.81605 1.63119,1.6321 2.4715,2.47288 1.72037,1.72339 3.43831,3.44921 5.15399,5.17726 2.63862,2.65692 5.2852,5.30571 7.93311,7.95337 1.66844,1.67336 3.33643,3.34717 5.0039,5.02149 1.19518,1.19684 1.19518,1.19684 2.41449,2.41786 0.72786,0.73424 1.45572,1.46847 2.20563,2.22496 0.64524,0.64905 1.29047,1.29809 1.95526,1.96681 C 396,281 396,281 396,282 c -7.37388,1.62667 -14.72739,2.36671 -22,0 -4.88295,-3.15845 -8.89834,-6.90121 -12.9375,-11.0625 -0.51539,-0.52023 -1.03079,-1.04045 -1.5618,-1.57645 C 353.2232,262.91867 353.2232,262.91867 351,259 c 0.22879,-4.36259 1.25356,-8.28303 2.5625,-12.4375 0.26941,-0.86496 0.53883,-1.72992 0.81641,-2.62109 C 354.58387,243.30074 354.78883,242.66008 355,242 Z"
       fill="#ebecee"
       id="path15" />
    <path
       d="m 472.94252,350.87975 c 0.85049,0.002 1.70099,0.004 2.57726,0.007 1.44138,1.2e-4 1.44138,1.2e-4 2.91188,2.3e-4 1.56717,0.008 1.56717,0.008 3.166,0.0156 1.06399,10e-4 2.12799,0.003 3.22422,0.004 3.41357,0.006 6.82707,0.0182 10.24062,0.0309 2.30794,0.005 4.61588,0.01 6.92383,0.0137 5.67124,0.0111 11.34245,0.0278 17.01367,0.0488 0.50404,1.2901 1.0031,2.58214 1.5,3.875 0.27844,0.7193 0.55688,1.43859 0.84375,2.17969 C 522,359 522,359 522,361 c 1.32,0.33 2.64,0.66 4,1 0,0.33 0,0.66 0,1 -20.9507,2.16325 -41.09771,2.85843 -62,0 0.95326,-0.35385 0.95326,-0.35385 1.92578,-0.71484 2.25413,-1.10348 2.25413,-1.10348 2.86719,-3.41407 0.13019,-0.80308 0.26039,-1.60617 0.39453,-2.43359 0.92146,-5.38234 0.92146,-5.38234 3.75502,-5.55775 z"
       fill="#f79a5d"
       id="path16" />
    <path
       d="m 286.40845,331.97827 c 1.04212,0.0471 2.08425,0.0943 3.15796,0.14282 1.1247,0.0483 2.24941,0.0967 3.4082,0.14649 1.77601,0.0841 1.77601,0.0841 3.58789,0.16992 1.18787,0.0522 2.37574,0.10441 3.59961,0.1582 2.9462,0.13016 5.8921,0.26514 8.83789,0.4043 -1.10639,5.30041 -2.35696,10.43518 -4.125,15.5625 -0.5298,1.54881 -0.5298,1.54881 -1.07031,3.12891 -0.39832,1.14275 -0.39832,1.14275 -0.80469,2.30859 -12.39323,0.4357 -24.67277,-0.8666 -37,-2 0,-2.97 0,-5.94 0,-9 4.95,-0.33 9.9,-0.66 15,-1 0.30937,-1.46437 0.61875,-2.92875 0.9375,-4.4375 1.17348,-5.55448 1.17348,-5.55448 4.47095,-5.58423 z"
       fill="#d68854"
       id="path17" />
    <path
       d="m 465,242 c 2.17596,2.17596 2.65334,3.44698 3.61987,6.32275 0.30339,0.89499 0.60678,1.78997 0.91936,2.71207 0.32092,0.97078 0.64184,1.94155 0.97249,2.94174 0.33248,0.99922 0.66496,1.99843 1.00752,3.02793 0.70181,2.11896 1.40013,4.23909 2.09526,6.36026 1.06359,3.23167 2.1508,6.45477 3.23902,9.67822 0.67921,2.06071 1.35699,4.12189 2.0332,6.18359 0.32699,0.95863 0.65399,1.91726 0.99089,2.90494 2.73786,8.51259 1.81355,14.34102 -0.94011,22.8685 -0.36223,1.13437 -0.72445,2.26875 -1.09766,3.4375 -0.27714,0.84562 -0.55429,1.69125 -0.83984,2.5625 -1.75004,-2.62506 -2.65975,-4.5598 -3.66748,-7.49292 -0.31307,-0.90913 -0.62614,-1.81825 -0.9487,-2.75493 -1.40819,-4.19587 -2.79477,-8.39834 -4.16312,-12.60737 -0.72463,-2.20377 -1.46561,-4.40223 -2.22363,-6.59473 C 461.29983,267.94308 458.07341,257.67847 464,244 c 0.33,-0.66 0.66,-1.32 1,-2 z"
       fill="#e8ebed"
       id="path18" />
    <path
       d="m 289,313 c 8.91,0 17.82,0 27,0 -1.84739,6.77376 -3.69852,13.38936 -6,20 -17.85649,0.18451 -17.85649,0.18451 -26,-1 0.64439,-2.60453 1.29045,-5.20863 1.9375,-7.8125 0.1824,-0.73799 0.3648,-1.47598 0.55273,-2.23633 C 287.24226,318.92939 288.01486,315.95543 289,313 Z"
       fill="#ebedee"
       id="path19" />
    <path
       d="m 433,326 c 12.87,0 25.74,0 39,0 -0.99,3.63 -1.98,7.26 -3,11 -12.87,0 -25.74,0 -39,0 0.99,-3.63 1.98,-7.26 3,-11 z"
       fill="#8c98a3"
       id="path20" />
    <path
       d="m 303.81641,278.90234 c 1.58206,0.007 3.1641,0.0186 4.74609,0.0352 0.80631,0.005 1.61262,0.009 2.44336,0.0137 1.99808,0.0118 3.99612,0.0298 5.99414,0.0488 0.67321,2.24805 1.33834,4.49852 2,6.75 0.55687,1.87945 0.55687,1.87945 1.125,3.79687 C 321,293 321,293 321,297 c -8.58,0 -17.16,0 -26,0 0.64158,-4.49104 1.20159,-8.15516 2.5,-12.375 0.25781,-0.85336 0.51562,-1.70672 0.78125,-2.58594 1.24873,-3.5426 1.38771,-3.03059 5.53516,-3.13672 z"
       fill="#eaeced"
       id="path21" />
    <path
       d="m 487,298 c 5.28,0 10.56,0 16,0 5,11.66667 5,11.66667 5,18 -8.58,0 -17.16,0 -26,0 0.9135,-7.30804 2.185,-11.46194 5,-18 z"
       fill="#eaeced"
       id="path22" />
    <path
       d="m 374,292 c 3.63,0 7.26,0 11,0 2.45769,5.91667 4.70172,11.86911 6.75,17.9375 0.2226,0.65041 0.44521,1.30083 0.67456,1.97095 C 393.36718,314.73927 394,316.99379 394,320 c -3.96,0 -7.92,0 -12,0 -1.34068,-3.91429 -2.67279,-7.83114 -4,-11.75 -0.38156,-1.11117 -0.76313,-2.22234 -1.15625,-3.36719 -0.36094,-1.06992 -0.72188,-2.13984 -1.09375,-3.24219 -0.33516,-0.98452 -0.67031,-1.96904 -1.01563,-2.98339 C 374,296 374,296 374,292 Z"
       fill="#8f9ba6"
       id="path23" />
    <path
       d="m 350,258 c 5.60525,4.66732 10.79462,9.64317 15.9375,14.8125 0.77924,0.77537 1.55848,1.55074 2.36133,2.34961 0.73541,0.7367 1.47082,1.4734 2.22851,2.23242 0.66766,0.66878 1.33531,1.33756 2.0232,2.02661 C 374,281 374,281 374,282 c -3.39538,0.14575 -6.78995,0.23422 -10.1875,0.3125 -0.95971,0.0419 -1.91941,0.0838 -2.9082,0.12695 -7.20042,0.12458 -7.20042,0.12458 -10.89258,-2.83398 C 349.34785,278.74566 348.68398,277.88586 348,277 c -0.99,-0.66 -1.98,-1.32 -3,-2 1.65,-5.61 3.3,-11.22 5,-17 z"
       fill="#f39b62"
       id="path24" />
    <path
       d="m 286.40845,331.97827 c 1.04212,0.0471 2.08425,0.0943 3.15796,0.14282 1.1247,0.0483 2.24941,0.0967 3.4082,0.14649 1.77601,0.0841 1.77601,0.0841 3.58789,0.16992 1.18787,0.0522 2.37574,0.10441 3.59961,0.1582 2.9462,0.13016 5.8921,0.26514 8.83789,0.4043 -0.31182,1.41682 -0.62449,2.83345 -0.9375,4.25 -0.26104,1.18336 -0.26104,1.18336 -0.52734,2.39063 -0.48272,2.12816 -0.99679,4.2447 -1.53516,6.35937 -3.35443,-0.1402 -6.70847,-0.28818 -10.0625,-0.4375 -0.94295,-0.0393 -1.8859,-0.0786 -2.85742,-0.11914 C 287.98885,345.21275 283.02935,344.83009 278,344 c 0,-0.66 0,-1.32 0,-2 0.99,0 1.98,0 3,0 0.13277,-0.63809 0.26555,-1.27617 0.40234,-1.93359 0.17661,-0.82629 0.35321,-1.65258 0.53516,-2.50391 0.17402,-0.82371 0.34805,-1.64742 0.52734,-2.49609 0.75813,-2.92738 0.85966,-3.06032 3.94361,-3.08814 z"
       fill="#f6995d"
       id="path25" />
    <path
       d="m 462,251 c 2.67283,2.67283 3.21232,5.21707 4.375,8.8125 0.21987,0.67579 0.43973,1.35158 0.66626,2.04785 1.66904,5.15655 3.27002,10.33389 4.84936,15.51856 1.41212,4.60927 2.85104,9.2098 4.29688,13.80859 0.26224,0.83886 0.52449,1.67771 0.79468,2.54199 0.3704,1.17611 0.3704,1.17611 0.74829,2.37598 0.22067,0.70278 0.44134,1.40556 0.6687,2.12964 0.58197,1.83976 0.58197,1.83976 1.60083,3.76489 -0.55859,2.16406 -0.55859,2.16406 -1.4375,4.625 -0.28746,0.81727 -0.57492,1.63453 -0.87109,2.47656 -0.22817,0.62649 -0.45633,1.25297 -0.69141,1.89844 -1.78409,-2.67613 -2.65225,-4.59954 -3.63574,-7.604 -0.30662,-0.93172 -0.61323,-1.86344 -0.92914,-2.8234 -1.37476,-4.26873 -2.74816,-8.53774 -4.10455,-12.81235 -0.71794,-2.24918 -1.44543,-4.49533 -2.18262,-6.73828 -1.06571,-3.243 -2.10198,-6.49415 -3.13233,-9.74853 -0.33215,-0.99408 -0.66431,-1.98816 -1.00653,-3.01236 C 459.98044,261.70167 459.94174,257.57306 462,251 Z"
       fill="#bdc5cb"
       id="path26" />
    <path
       d="m 414,234 c 8.25,0 16.5,0 25,0 -0.86167,4.30836 -2.05577,8.21436 -3.5625,12.3125 -0.23396,0.64518 -0.46793,1.29035 -0.70898,1.95508 -0.57299,1.57863 -1.15031,3.15569 -1.72852,4.73242 -4.72899,-3.86918 -9.11269,-8.00302 -13.4375,-12.3125 -0.54431,-0.53979 -1.08861,-1.07959 -1.64941,-1.63574 C 414,235.12373 414,235.12373 414,234 Z"
       fill="#e7e8e9"
       id="path27" />
    <path
       d="m 350,347 c 1.98,0 3.96,0 6,0 0,2.97 0,5.94 0,9 -6.9437,2.71338 -12.64607,3.38878 -20.0625,3.1875 -0.961,-0.0135 -1.92199,-0.0271 -2.91211,-0.041 -2.34241,-0.035 -4.68358,-0.084 -7.02539,-0.14648 0.66,-1.98 1.32,-3.96 2,-6 7.35794,-0.9116 14.58983,-1.11459 22,-1 0,-1.65 0,-3.3 0,-5 z"
       fill="#604f3e"
       id="path28" />
    <path
       d="m 305,263 c 2.31,0 4.62,0 7,0 0.67185,2.10252 1.33731,4.20708 2,6.3125 0.37125,1.17176 0.7425,2.34352 1.125,3.55078 C 316,276 316,276 316,279 c -5.28,0 -10.56,0 -16,0 2.94643,-12.32143 2.94643,-12.32143 5,-16 z"
       fill="#f4985c"
       id="path29" />
    <path
       d="m 491,282 c 2.31,0 4.62,0 7,0 2.47605,5.28975 3.85388,10.26941 5,16 -5.28,0 -10.56,0 -16,0 1.32,-5.28 2.64,-10.56 4,-16 z"
       fill="#f5985c"
       id="path30" />
    <path
       d="m 320,341 c 1.32,0.99 2.64,1.98 4,3 -1.16205,6.54849 -2.73383,12.74538 -5,19 -3.25,0.3125 -3.25,0.3125 -7,0 -2.5,-2.3125 -2.5,-2.3125 -4,-5 0.495,-1.485 0.495,-1.485 1,-3 2.31,0 4.62,0 7,0 1.32,-4.62 2.64,-9.24 4,-14 z"
       fill="#bbc3ca"
       id="path31" />
    <path
       d="m 339,285 c 1.53662,1.2522 1.53662,1.2522 3,3 -0.0171,1.85522 -0.0171,1.85522 -0.58594,3.96484 -0.20979,0.79519 -0.41959,1.59038 -0.63574,2.40967 -1.40816,4.75012 -2.86933,9.47689 -4.40332,14.18799 -0.32484,1.00869 -0.64969,2.01738 -0.98438,3.05664 -0.79327,2.46148 -1.5902,4.9217 -2.39062,7.38086 -2.475,0.495 -2.475,0.495 -5,1 2.28402,-7.74486 4.71608,-15.43813 7.1875,-23.125 0.36803,-1.14727 0.73605,-2.29453 1.11523,-3.47656 C 337.20099,290.59869 338.10009,287.79922 339,285 Z"
       fill="#bdc5cc"
       id="path32" />
    <path
       d="m 391,347 c 3.63,0 7.26,0 11,0 -0.33,1.65 -0.66,3.3 -1,5 -0.23943,3.84502 -0.23082,7.30753 1,11 -2.31,0 -4.62,0 -7,0 -0.67185,-2.10252 -1.33731,-4.20708 -2,-6.3125 -0.55688,-1.75764 -0.55688,-1.75764 -1.125,-3.55078 C 391,350 391,350 391,347 Z"
       fill="#8e9aa5"
       id="path33" />
    <path
       d="m 330,347 c 6.6,0 13.2,0 20,0 0,1.65 0,3.3 0,5 -7.35575,0.70777 -14.60945,1.14716 -22,1 0.66,-1.98 1.32,-3.96 2,-6 z"
       fill="#d58753"
       id="path34" />
    <path
       d="m 345,276 c 3.24272,0.55909 4.93057,1.41322 7,4 0,0.66 0,1.32 0,2 -2.64,0 -5.28,0 -8,0 0.33,-1.98 0.66,-3.96 1,-6 z"
       fill="#e5e2e0"
       id="path35" />
  </g>
</svg>
